<svg width="40" height="40" viewBox="0 0 40 40" fill="none" xmlns="http://www.w3.org/2000/svg">
<path d="M20 39.5C9.23045 39.5 0.5 30.7696 0.5 20C0.5 9.23045 9.23045 0.5 20 0.5C30.7696 0.5 39.5 9.23045 39.5 20C39.5 30.7696 30.7696 39.5 20 39.5Z" stroke="#A6A6A6" stroke-linecap="round"/>
<mask id="path-2-inside-1_0_6726" fill="white">
<path d="M17.5 12.5L25.8333 20L17.5 27.5"/>
</mask>
<path d="M18.169 11.7567C17.7585 11.3872 17.1262 11.4205 16.7567 11.831C16.3872 12.2415 16.4205 12.8738 16.831 13.2433L18.169 11.7567ZM25.8333 20L26.5023 20.7433C26.713 20.5537 26.8333 20.2835 26.8333 20C26.8333 19.7165 26.713 19.4463 26.5023 19.2567L25.8333 20ZM16.831 26.7567C16.4205 27.1262 16.3872 27.7585 16.7567 28.169C17.1262 28.5795 17.7585 28.6128 18.169 28.2433L16.831 26.7567ZM16.831 13.2433L25.1644 20.7433L26.5023 19.2567L18.169 11.7567L16.831 13.2433ZM25.1644 19.2567L16.831 26.7567L18.169 28.2433L26.5023 20.7433L25.1644 19.2567Z" fill="#A6A6A6" mask="url(#path-2-inside-1_0_6726)"/>
</svg>
