<svg width="40" height="40" viewBox="0 0 40 40" fill="none" xmlns="http://www.w3.org/2000/svg">
<path d="M20 39.5C9.23045 39.5 0.5 30.7696 0.5 20C0.5 9.23045 9.23045 0.5 20 0.5C30.7696 0.5 39.5 9.23045 39.5 20C39.5 30.7696 30.7696 39.5 20 39.5Z" stroke="#A6A6A6" stroke-linecap="round"/>
<mask id="path-2-inside-1_0_6723" fill="white">
<path d="M23.3333 12.5L15 20L23.3333 27.5"/>
</mask>
<path d="M24.0023 13.2433C24.4128 12.8738 24.4461 12.2415 24.0766 11.831C23.7072 11.4205 23.0749 11.3872 22.6644 11.7567L24.0023 13.2433ZM15 20L14.331 19.2567C14.1203 19.4463 14 19.7165 14 20C14 20.2835 14.1203 20.5537 14.331 20.7433L15 20ZM22.6644 28.2433C23.0749 28.6128 23.7072 28.5795 24.0766 28.169C24.4461 27.7585 24.4128 27.1262 24.0023 26.7567L22.6644 28.2433ZM22.6644 11.7567L14.331 19.2567L15.669 20.7433L24.0023 13.2433L22.6644 11.7567ZM14.331 20.7433L22.6644 28.2433L24.0023 26.7567L15.669 19.2567L14.331 20.7433Z" fill="#A6A6A6" mask="url(#path-2-inside-1_0_6723)"/>
</svg>
