<svg width="32" height="31" viewBox="0 0 32 31" fill="none" xmlns="http://www.w3.org/2000/svg">
<path d="M19 8.5C19 9.32843 19.6716 10 20.5 10C21.3284 10 22 9.32843 22 8.5C22 7.67157 21.3284 7 20.5 7C19.6716 7 19 7.67157 19 8.5Z" fill="#404040"/>
<path d="M15 17L10 23" stroke="#404040" stroke-width="1.5" stroke-linecap="round" stroke-linejoin="round"/>
<path d="M25.7916 7.86098C25.3928 6.33122 24.4502 4.9992 23.1403 4.11418C21.8303 3.22917 20.2428 2.85181 18.6747 3.05273C17.1066 3.25366 15.6655 4.01909 14.621 5.20578C13.5765 6.39248 13.0002 7.91912 13 9.50001V12L1 27H14C17.1826 27 20.2348 25.7357 22.4853 23.4853C24.7357 21.2349 26 18.1826 26 15V12L29 10L25.7916 7.86098Z" stroke="#404040" stroke-width="1.5" stroke-linecap="round" stroke-linejoin="round"/>
</svg>
