<svg width="32" height="32" viewBox="0 0 32 32" fill="none" xmlns="http://www.w3.org/2000/svg">
<path d="M16 6V3" stroke="#404040" stroke-width="1.5" stroke-linecap="round" stroke-linejoin="round"/>
<path d="M27.8112 15.136C27.6885 14.9658 27.5153 14.8384 27.3162 14.7721L16.3162 11.1054C16.111 11.037 15.889 11.037 15.6838 11.1054L4.68377 14.7721C4.48466 14.8384 4.31148 14.9658 4.18876 15.136C4.06604 15.3063 4 15.5109 4 15.7207V20C5.82129 26.3745 14.2768 28.6026 15.7733 28.9499C15.9224 28.9846 16.0776 28.9846 16.2267 28.9499C17.7232 28.6026 26.1787 26.3745 28 20V15.7207C28 15.5109 27.934 15.3063 27.8112 15.136Z" stroke="#404040" stroke-width="1.5" stroke-linecap="round" stroke-linejoin="round"/>
<path d="M16 21V11.0541" stroke="#404040" stroke-width="1.5" stroke-linecap="round" stroke-linejoin="round"/>
<path d="M7 14V7C7 6.73478 7.10536 6.48043 7.29289 6.29289C7.48043 6.10536 7.73478 6 8 6H24C24.2652 6 24.5196 6.10536 24.7071 6.29289C24.8946 6.48043 25 6.73478 25 7V14" stroke="#404040" stroke-width="1.5" stroke-linecap="round" stroke-linejoin="round"/>
</svg>
