<svg width="32" height="32" viewBox="0 0 32 32" fill="none" xmlns="http://www.w3.org/2000/svg">
<path d="M5 26C5 26.5523 5.44772 27 6 27H10C10.5523 27 11 26.5523 11 26V6C11 5.44772 10.5523 5 10 5H6C5.44772 5 5 5.44772 5 6V26Z" stroke="#404040" stroke-width="1.5" stroke-linecap="round" stroke-linejoin="round"/>
<path d="M5 10H11" stroke="#404040" stroke-width="1.5" stroke-linecap="round" stroke-linejoin="round"/>
<path d="M11 26C11 26.5523 11.4477 27 12 27H16C16.5523 27 17 26.5523 17 26V6C17 5.44772 16.5523 5 16 5H12C11.4477 5 11 5.44772 11 6V26Z" stroke="#404040" stroke-width="1.5" stroke-linecap="round" stroke-linejoin="round"/>
<path d="M11 22H17" stroke="#404040" stroke-width="1.5" stroke-linecap="round" stroke-linejoin="round"/>
<path d="M22.4406 26.2586C22.5835 26.792 23.1318 27.1086 23.6653 26.9657L27.529 25.9304C28.0625 25.7875 28.3791 25.2391 28.2361 24.7057L23.0597 5.38713C22.9168 4.85367 22.3685 4.53708 21.835 4.68003L17.9713 5.7153C17.4378 5.85824 17.1212 6.40658 17.2642 6.94005L22.4406 26.2586Z" stroke="#404040" stroke-width="1.5" stroke-linecap="round" stroke-linejoin="round"/>
<path d="M21.4052 22.3949L27.2007 20.8419" stroke="#404040" stroke-width="1.5" stroke-linecap="round" stroke-linejoin="round"/>
<path d="M18.2993 10.8038L24.0949 9.25085" stroke="#404040" stroke-width="1.5" stroke-linecap="round" stroke-linejoin="round"/>
</svg>
