<svg width="25" height="24" viewBox="0 0 25 24" fill="none" xmlns="http://www.w3.org/2000/svg">
<path fill-rule="evenodd" clip-rule="evenodd" d="M20.75 3.75C20.7495 3.35231 20.5914 2.97105 20.3102 2.68984C20.029 2.40864 19.6477 2.25045 19.25 2.25H5.75C5.35231 2.25045 4.97105 2.40864 4.68984 2.68984C4.40864 2.97105 4.25045 3.35231 4.25 3.75V20.25C4.25045 20.6477 4.40864 21.029 4.68984 21.3102C4.97105 21.5914 5.35231 21.7495 5.75 21.75H19.25C19.6477 21.7495 20.029 21.5914 20.3102 21.3102C20.5914 21.029 20.7495 20.6477 20.75 20.25V3.75ZM9.875 17.6243C9.87466 17.9225 9.75602 18.2085 9.54512 18.4194C9.33421 18.6303 9.04826 18.7489 8.75 18.7493C8.5275 18.7493 8.30999 18.6833 8.12498 18.5597C7.93998 18.4361 7.79578 18.2604 7.71064 18.0548C7.62549 17.8492 7.60321 17.623 7.64662 17.4048C7.69002 17.1866 7.79717 16.9861 7.9545 16.8288C8.11184 16.6714 8.31229 16.5643 8.53052 16.5209C8.74875 16.4775 8.97495 16.4998 9.18052 16.5849C9.38609 16.6701 9.56179 16.8142 9.6854 16.9993C9.80902 17.1843 9.875 17.4018 9.875 17.6243ZM9.54512 14.6694C9.75602 14.4585 9.87466 14.1725 9.875 13.8743C9.875 13.6518 9.80902 13.4343 9.6854 13.2493C9.56179 13.0642 9.38609 12.9201 9.18052 12.8349C8.97495 12.7498 8.74875 12.7275 8.53052 12.7709C8.31229 12.8143 8.11184 12.9214 7.9545 13.0788C7.79717 13.2361 7.69002 13.4366 7.64662 13.6548C7.60321 13.873 7.62549 14.0992 7.71064 14.3048C7.79578 14.5104 7.93998 14.6861 8.12498 14.8097C8.30999 14.9333 8.5275 14.9993 8.75 14.9993C9.04826 14.9989 9.33421 14.8803 9.54512 14.6694ZM13.625 17.6243C13.6247 17.9225 13.506 18.2085 13.2951 18.4194C13.0842 18.6303 12.7983 18.7489 12.5 18.7493C12.2775 18.7493 12.06 18.6833 11.875 18.5597C11.69 18.4361 11.5458 18.2604 11.4606 18.0548C11.3755 17.8492 11.3532 17.623 11.3966 17.4048C11.44 17.1866 11.5472 16.9861 11.7045 16.8288C11.8618 16.6714 12.0623 16.5643 12.2805 16.5209C12.4988 16.4775 12.725 16.4998 12.9305 16.5849C13.1361 16.6701 13.3118 16.8142 13.4354 16.9993C13.559 17.1843 13.625 17.4018 13.625 17.6243ZM13.2951 14.6694C13.506 14.4585 13.6247 14.1725 13.625 13.8743C13.625 13.6518 13.559 13.4343 13.4354 13.2493C13.3118 13.0642 13.1361 12.9201 12.9305 12.8349C12.725 12.7498 12.4988 12.7275 12.2805 12.7709C12.0623 12.8143 11.8618 12.9214 11.7045 13.0788C11.5472 13.2361 11.44 13.4366 11.3966 13.6548C11.3532 13.873 11.3755 14.0992 11.4606 14.3048C11.5458 14.5104 11.69 14.6861 11.875 14.8097C12.06 14.9333 12.2775 14.9993 12.5 14.9993C12.7983 14.9989 13.0842 14.8803 13.2951 14.6694ZM17.375 17.6243C17.3747 17.9225 17.256 18.2085 17.0451 18.4194C16.8342 18.6303 16.5483 18.7489 16.25 18.7493C16.0275 18.7493 15.81 18.6833 15.625 18.5597C15.44 18.4361 15.2958 18.2604 15.2106 18.0548C15.1255 17.8492 15.1032 17.623 15.1466 17.4048C15.19 17.1866 15.2972 16.9861 15.4545 16.8288C15.6118 16.6714 15.8123 16.5643 16.0305 16.5209C16.2488 16.4775 16.475 16.4998 16.6805 16.5849C16.8861 16.6701 17.0618 16.8142 17.1854 16.9993C17.309 17.1843 17.375 17.4018 17.375 17.6243ZM17.0451 14.6694C17.256 14.4585 17.3747 14.1725 17.375 13.8743C17.375 13.6518 17.309 13.4343 17.1854 13.2493C17.0618 13.0642 16.8861 12.9201 16.6805 12.8349C16.475 12.7498 16.2488 12.7275 16.0305 12.7709C15.8123 12.8143 15.6118 12.9214 15.4545 13.0788C15.2972 13.2361 15.19 13.4366 15.1466 13.6548C15.1032 13.873 15.1255 14.0992 15.2106 14.3048C15.2958 14.5104 15.44 14.6861 15.625 14.8097C15.81 14.9333 16.0275 14.9993 16.25 14.9993C16.5483 14.9989 16.8342 14.8803 17.0451 14.6694ZM17.5303 5.46893C17.6 5.53858 17.6552 5.62126 17.6929 5.71225C17.7306 5.80325 17.75 5.90078 17.75 5.99927V9.74927C17.75 9.84776 17.7306 9.94529 17.6929 10.0363C17.6552 10.1273 17.6 10.21 17.5303 10.2796C17.4607 10.3492 17.378 10.4045 17.287 10.4422C17.196 10.4799 17.0985 10.4993 17 10.4993H8C7.90151 10.4993 7.80398 10.4799 7.71298 10.4422C7.62199 10.4045 7.53931 10.3492 7.46966 10.2796C7.40002 10.21 7.34477 10.1273 7.30708 10.0363C7.26939 9.94529 7.25 9.84776 7.25 9.74927V5.99927C7.25 5.90078 7.26939 5.80325 7.30708 5.71225C7.34477 5.62126 7.40002 5.53858 7.46966 5.46893C7.53931 5.39929 7.62199 5.34404 7.71298 5.30635C7.80398 5.26866 7.90151 5.24927 8 5.24927H17C17.0985 5.24927 17.196 5.26866 17.287 5.30635C17.378 5.34404 17.4607 5.39929 17.5303 5.46893Z" fill="#404040"/>
</svg>
