<svg width="25" height="24" viewBox="0 0 25 24" fill="none" xmlns="http://www.w3.org/2000/svg">
<path d="M17 10.5V6H8V10.5H17Z" stroke="#404040" stroke-linecap="round" stroke-linejoin="round"/>
<path d="M5.75 3C5.33579 3 5 3.33579 5 3.75L5 20.25C5 20.6642 5.33579 21 5.75 21H19.25C19.6642 21 20 20.6642 20 20.25V3.75C20 3.33579 19.6642 3 19.25 3L5.75 3Z" stroke="#404040" stroke-linecap="round" stroke-linejoin="round"/>
<path d="M7.625 13.875C7.625 14.4963 8.12868 15 8.75 15C9.37132 15 9.875 14.4963 9.875 13.875C9.875 13.2537 9.37132 12.75 8.75 12.75C8.12868 12.75 7.625 13.2537 7.625 13.875Z" fill="#404040"/>
<path d="M11.375 13.875C11.375 14.4963 11.8787 15 12.5 15C13.1213 15 13.625 14.4963 13.625 13.875C13.625 13.2537 13.1213 12.75 12.5 12.75C11.8787 12.75 11.375 13.2537 11.375 13.875Z" fill="#404040"/>
<path d="M15.125 13.875C15.125 14.4963 15.6287 15 16.25 15C16.8713 15 17.375 14.4963 17.375 13.875C17.375 13.2537 16.8713 12.75 16.25 12.75C15.6287 12.75 15.125 13.2537 15.125 13.875Z" fill="#404040"/>
<path d="M7.625 17.625C7.625 18.2463 8.12868 18.75 8.75 18.75C9.37132 18.75 9.875 18.2463 9.875 17.625C9.875 17.0037 9.37132 16.5 8.75 16.5C8.12868 16.5 7.625 17.0037 7.625 17.625Z" fill="#404040"/>
<path d="M11.375 17.625C11.375 18.2463 11.8787 18.75 12.5 18.75C13.1213 18.75 13.625 18.2463 13.625 17.625C13.625 17.0037 13.1213 16.5 12.5 16.5C11.8787 16.5 11.375 17.0037 11.375 17.625Z" fill="#404040"/>
<path d="M15.125 17.625C15.125 18.2463 15.6287 18.75 16.25 18.75C16.8713 18.75 17.375 18.2463 17.375 17.625C17.375 17.0037 16.8713 16.5 16.25 16.5C15.6287 16.5 15.125 17.0037 15.125 17.625Z" fill="#404040"/>
</svg>
