<svg width="32" height="32" viewBox="0 0 32 32" fill="none" xmlns="http://www.w3.org/2000/svg">
<path d="M16 24V28" stroke="#404040" stroke-width="1.5" stroke-linecap="round" stroke-linejoin="round"/>
<path d="M9 17.5C9 18.3284 9.67157 19 10.5 19C11.3284 19 12 18.3284 12 17.5C12 16.6716 11.3284 16 10.5 16C9.67157 16 9 16.6716 9 17.5Z" fill="#404040"/>
<path d="M20 17.5C20 18.3284 20.6716 19 21.5 19C22.3284 19 23 18.3284 23 17.5C23 16.6716 22.3284 16 21.5 16C20.6716 16 20 16.6716 20 17.5Z" fill="#404040"/>
<path d="M16 6V11" stroke="#404040" stroke-width="1.5" stroke-linecap="round" stroke-linejoin="round"/>
<path d="M18 22L16 24L14 22" stroke="#404040" stroke-width="1.5" stroke-linecap="round" stroke-linejoin="round"/>
<path d="M12 6.6261V11" stroke="#404040" stroke-width="1.5" stroke-linecap="round" stroke-linejoin="round"/>
<path d="M20 6.6261V11" stroke="#404040" stroke-width="1.5" stroke-linecap="round" stroke-linejoin="round"/>
<path d="M28 17V6.41419C28 6.2164 27.9414 6.02306 27.8315 5.85862C27.7216 5.69417 27.5654 5.56599 27.3827 5.49031C27.2 5.41462 26.9989 5.39481 26.8049 5.4334C26.6109 5.47198 26.4327 5.56722 26.2929 5.70708L23.5502 8.44976L23.5503 8.44971C21.3548 6.85741 18.7121 5.99997 16 5.99997C13.2879 5.99997 10.6452 6.85741 8.44975 8.44971L8.44979 8.44976L5.70711 5.70708C5.56725 5.56723 5.38907 5.47198 5.19509 5.4334C5.00111 5.39481 4.80004 5.41462 4.61732 5.49031C4.43459 5.56599 4.27841 5.69417 4.16853 5.85861C4.05865 6.02306 4 6.2164 4 6.41419V17C4 23.0751 9.37258 28 16 28C22.6274 28 28 23.0751 28 17Z" stroke="#404040" stroke-width="1.5" stroke-linecap="round" stroke-linejoin="round"/>
</svg>
