<svg width="32" height="32" viewBox="0 0 32 32" fill="none" xmlns="http://www.w3.org/2000/svg">
<path d="M8 6H24C24.2652 6 24.5196 6.10536 24.7071 6.29289C24.8946 6.48043 25 6.73478 25 7V14C25 15.1876 24.7649 16.3635 24.3084 17.4599C23.8518 18.5563 23.1828 19.5514 22.3398 20.388C21.4968 21.2246 20.4966 21.8861 19.3968 22.3344C18.297 22.7826 17.1194 23.0088 15.9318 22.9997C10.9693 22.963 7 18.8496 7 13.887V7C7 6.73478 7.10536 6.48043 7.29289 6.29289C7.48043 6.10536 7.73478 6 8 6Z" stroke="#404040" stroke-width="1.5" stroke-linecap="round" stroke-linejoin="round"/>
<path d="M12 28H20" stroke="#404040" stroke-width="1.5" stroke-linecap="round" stroke-linejoin="round"/>
<path d="M16 23V28" stroke="#404040" stroke-width="1.5" stroke-linecap="round" stroke-linejoin="round"/>
<path d="M24.777 16H26C27.0609 16 28.0783 15.5786 28.8285 14.8284C29.5786 14.0783 30 13.0609 30 12V10C30 9.73478 29.8947 9.48043 29.7071 9.29289C29.5196 9.10536 29.2652 9 29 9H25" stroke="#404040" stroke-width="1.5" stroke-linecap="round" stroke-linejoin="round"/>
<path d="M7.24552 16H5.98413C4.92326 16 3.90585 15.5786 3.1557 14.8284C2.40556 14.0783 1.98413 13.0609 1.98413 12V10C1.98413 9.73478 2.08949 9.48043 2.27702 9.29289C2.46456 9.10536 2.71891 9 2.98413 9H6.98413" stroke="#404040" stroke-width="1.5" stroke-linecap="round" stroke-linejoin="round"/>
</svg>
