<svg width="32" height="31" viewBox="0 0 32 31" fill="none" xmlns="http://www.w3.org/2000/svg">
<path d="M16 24V27" stroke="#404040" stroke-width="1.5" stroke-linecap="round" stroke-linejoin="round"/>
<path d="M10 17.5C10 18.3284 10.6716 19 11.5 19C12.3284 19 13 18.3284 13 17.5C13 16.6716 12.3284 16 11.5 16C10.6716 16 10 16.6716 10 17.5Z" fill="#404040"/>
<path d="M19 17.5C19 18.3284 19.6716 19 20.5 19C21.3284 19 22 18.3284 22 17.5C22 16.6716 21.3284 16 20.5 16C19.6716 16 19 16.6716 19 17.5Z" fill="#404040"/>
<path d="M18 22L16 24L14 22" stroke="#404040" stroke-width="1.5" stroke-linecap="round" stroke-linejoin="round"/>
<path d="M29.2479 15.989L27.1956 5.04331C27.1705 4.9093 27.1182 4.78185 27.042 4.66879C26.9659 4.55572 26.8673 4.45943 26.7526 4.38583C26.6378 4.31222 26.5092 4.26287 26.3747 4.24079C26.2401 4.21872 26.1025 4.22439 25.9702 4.25746L19 6.00001L27.4788 16.7911C28.125 17.6137 29.4407 17.0172 29.2479 15.989Z" stroke="#404040" stroke-width="1.5" stroke-linecap="round" stroke-linejoin="round"/>
<path d="M2.752 15.989L4.80432 5.04331C4.82944 4.90931 4.88171 4.78185 4.9579 4.66879C5.03409 4.55572 5.13259 4.45943 5.24736 4.38582C5.36213 4.31222 5.49074 4.26287 5.62528 4.24079C5.75982 4.21872 5.89746 4.22439 6.02973 4.25746L12.9999 6.00001L4.52119 16.7912C3.87491 17.6137 2.55922 17.0172 2.752 15.989Z" stroke="#404040" stroke-width="1.5" stroke-linecap="round" stroke-linejoin="round"/>
<path d="M13 6H19" stroke="#404040" stroke-width="1.5" stroke-linecap="round" stroke-linejoin="round"/>
<path d="M26 14.9091V23C26 24.0609 25.5786 25.0783 24.8284 25.8284C24.0783 26.5786 23.0609 27 22 27H10C8.93913 27 7.92172 26.5786 7.17157 25.8284C6.42143 25.0783 6 24.0609 6 23V14.9091" stroke="#404040" stroke-width="1.5" stroke-linecap="round" stroke-linejoin="round"/>
</svg>
