<svg width="32" height="32" viewBox="0 0 32 32" fill="none" xmlns="http://www.w3.org/2000/svg">
<path d="M12.5 16C12.5 17.933 14.067 19.5 16 19.5C17.933 19.5 19.5 17.933 19.5 16C19.5 14.067 17.933 12.5 16 12.5C14.067 12.5 12.5 14.067 12.5 16Z" stroke="#404040" stroke-width="1.5" stroke-linecap="round" stroke-linejoin="round"/>
<path d="M14.3785 12.8978C13.4629 10.9723 12.5 8.5735 12.5 7C12.5 6.07174 12.8687 5.1815 13.5251 4.52513C14.1815 3.86875 15.0717 3.5 16 3.5C16.9283 3.5 17.8185 3.86875 18.4749 4.52513C19.1313 5.1815 19.5 6.07174 19.5 7C19.5 8.5735 18.5371 10.9723 17.6215 12.8978" stroke="#404040" stroke-width="1.5" stroke-linecap="round" stroke-linejoin="round"/>
<path d="M12.5027 15.8531C10.3774 15.6834 7.81851 15.3178 6.45581 14.5311C5.6522 14.0668 5.06588 13.3024 4.8258 12.4059C4.58573 11.5094 4.71154 10.5542 5.17558 9.7505C5.63963 8.94675 6.4039 8.36022 7.30033 8.11989C8.19675 7.87955 9.15193 8.0051 9.95581 8.46891C11.3185 9.25566 12.9145 11.2889 14.1242 13.0447" stroke="#404040" stroke-width="1.5" stroke-linecap="round" stroke-linejoin="round"/>
<path d="M14.1242 18.9553C12.9145 20.7111 11.3185 22.7443 9.95581 23.5311C9.15194 23.9949 8.19675 24.1204 7.30033 23.8801C6.4039 23.6398 5.63963 23.0532 5.17558 22.2495C4.71154 21.4457 4.58573 20.4906 4.8258 19.5941C5.06588 18.6976 5.6522 17.9332 6.45581 17.4689C7.81851 16.6822 10.3774 16.3166 12.5027 16.1469" stroke="#404040" stroke-width="1.5" stroke-linecap="round" stroke-linejoin="round"/>
<path d="M17.6215 19.1022C18.5371 21.0277 19.5 23.4265 19.5 25C19.5 25.9283 19.1313 26.8185 18.4749 27.4749C17.8185 28.1313 16.9283 28.5 16 28.5C15.0717 28.5 14.1815 28.1313 13.5251 27.4749C12.8687 26.8185 12.5 25.9283 12.5 25C12.5 23.4265 13.4629 21.0277 14.3785 19.1022" stroke="#404040" stroke-width="1.5" stroke-linecap="round" stroke-linejoin="round"/>
<path d="M19.4973 16.1469C21.6227 16.3166 24.1815 16.6821 25.5442 17.4689C26.3479 17.9332 26.9342 18.6976 27.1742 19.5941C27.4143 20.4906 27.2885 21.4457 26.8245 22.2495C26.3604 23.0532 25.5962 23.6398 24.6997 23.8801C23.8033 24.1204 22.8481 23.9949 22.0442 23.5311C20.6815 22.7443 19.0855 20.7111 17.8759 18.9553" stroke="#404040" stroke-width="1.5" stroke-linecap="round" stroke-linejoin="round"/>
<path d="M17.8759 13.0447C19.0855 11.2889 20.6815 9.25566 22.0442 8.46891C22.8481 8.0051 23.8033 7.87955 24.6997 8.11989C25.5961 8.36022 26.3604 8.94675 26.8245 9.7505C27.2885 10.5542 27.4143 11.5094 27.1742 12.4059C26.9342 13.3024 26.3478 14.0668 25.5442 14.5311C24.1815 15.3178 21.6227 15.6834 19.4973 15.8531" stroke="#404040" stroke-width="1.5" stroke-linecap="round" stroke-linejoin="round"/>
</svg>
