<svg width="32" height="32" viewBox="0 0 32 32" fill="none" xmlns="http://www.w3.org/2000/svg">
<path d="M15.5186 29.014C15.6661 29.0949 15.8316 29.1374 15.9998 29.1374C16.1681 29.1374 16.3336 29.0949 16.4811 29.014C16.6285 28.933 16.7532 28.8162 16.8435 28.6742L29.0698 9.46155C29.2071 9.24458 29.256 8.98322 29.2064 8.73129C29.1568 8.47936 29.0125 8.25603 28.8032 8.1073C25.0683 5.43614 20.5916 4 15.9998 4C11.4081 4 6.93135 5.43614 3.19651 8.1073C2.98721 8.25603 2.84291 8.47936 2.79331 8.73129C2.74371 8.98322 2.7926 9.24458 2.92991 9.46155L15.1562 28.6742C15.2465 28.8162 15.3712 28.933 15.5186 29.014Z" stroke="#404040" stroke-width="1.5" stroke-linecap="round" stroke-linejoin="round"/>
<path d="M4.59326 12.075C7.81068 9.4399 11.8412 8 16.0001 8C20.1589 8 24.1894 9.4399 27.4068 12.075" stroke="#404040" stroke-width="1.5" stroke-linecap="round" stroke-linejoin="round"/>
<path d="M20.5398 22.8666C20.0157 22.7171 19.5339 22.4474 19.1325 22.0788C18.7311 21.7103 18.4213 21.2531 18.2277 20.7437C18.0342 20.2343 17.9623 19.6868 18.0176 19.1447C18.073 18.6026 18.2542 18.0809 18.5467 17.6212C18.8393 17.1614 19.2351 16.7764 19.7028 16.4966C20.1704 16.2168 20.6969 16.0501 21.2403 16.0096C21.7837 15.9692 22.3291 16.0562 22.8329 16.2637C23.3368 16.4712 23.7853 16.7935 24.1426 17.2049" stroke="#404040" stroke-width="1.5" stroke-linecap="round" stroke-linejoin="round"/>
<path d="M7.2373 16.2303C7.46831 15.6366 7.85697 15.1172 8.36139 14.728C8.86582 14.3389 9.46688 14.0948 10.0998 14.022C10.7327 13.9493 11.3735 14.0507 11.953 14.3152C12.5326 14.5797 13.029 14.9974 13.3886 15.5233C13.7483 16.0491 13.9577 16.6631 13.9942 17.2992C14.0306 17.9352 13.8928 18.5691 13.5956 19.1326C13.2984 19.6961 12.853 20.1678 12.3075 20.4969C11.762 20.826 11.137 20.9999 10.4999 21C10.4237 21 10.3481 20.9976 10.2731 20.9927" stroke="#404040" stroke-width="1.5" stroke-linecap="round" stroke-linejoin="round"/>
</svg>
