<svg width="32" height="32" viewBox="0 0 32 32" fill="none" xmlns="http://www.w3.org/2000/svg">
<path d="M15.5188 29.014C15.6662 29.0949 15.8317 29.1374 16 29.1374C16.1682 29.1374 16.3337 29.0949 16.4812 29.014C16.6286 28.933 16.7533 28.8162 16.8436 28.6742L29.0699 9.46155C29.2072 9.24458 29.2561 8.98322 29.2065 8.73129C29.1569 8.47936 29.0126 8.25603 28.8033 8.1073C25.0685 5.43614 20.5917 4 16 4C11.4082 4 6.93147 5.43614 3.19663 8.1073C2.98733 8.25603 2.84303 8.47936 2.79343 8.73129C2.74384 8.98322 2.79273 9.24458 2.93003 9.46155L15.1563 28.6742C15.2466 28.8162 15.3713 28.933 15.5188 29.014Z" stroke="#404040" stroke-width="1.5" stroke-linecap="round" stroke-linejoin="round"/>
<path d="M4.59326 12.075C7.81068 9.4399 11.8412 8 16.0001 8C20.1589 8 24.1894 9.4399 27.4068 12.075" stroke="#404040" stroke-width="1.5" stroke-linecap="round" stroke-linejoin="round"/>
<path d="M20.5396 22.8666C20.0156 22.7171 19.5337 22.4474 19.1324 22.0788C18.731 21.7103 18.4212 21.2531 18.2276 20.7437C18.0341 20.2343 17.9621 19.6868 18.0175 19.1447C18.0729 18.6026 18.2541 18.0809 18.5466 17.6212C18.8392 17.1614 19.235 16.7764 19.7026 16.4966C20.1703 16.2168 20.6967 16.0501 21.2402 16.0096C21.7836 15.9692 22.3289 16.0562 22.8328 16.2637C23.3367 16.4712 23.7851 16.7935 24.1425 17.2049" stroke="#404040" stroke-width="1.5" stroke-linecap="round" stroke-linejoin="round"/>
<path d="M7.23743 16.2303C7.46843 15.6366 7.85709 15.1172 8.36151 14.728C8.86594 14.3389 9.467 14.0948 10.0999 14.022C10.7328 13.9493 11.3736 14.0507 11.9532 14.3152C12.5327 14.5797 13.0291 14.9974 13.3888 15.5233C13.7485 16.0491 13.9578 16.6631 13.9943 17.2992C14.0308 17.9352 13.893 18.5691 13.5957 19.1326C13.2985 19.6961 12.8531 20.1678 12.3076 20.4969C11.7621 20.826 11.1371 20.9999 10.5 21C10.4238 21 10.3482 20.9976 10.2732 20.9927" stroke="#404040" stroke-width="1.5" stroke-linecap="round" stroke-linejoin="round"/>
</svg>
