<svg width="32" height="32" viewBox="0 0 32 32" fill="none" xmlns="http://www.w3.org/2000/svg">
<path d="M4 15C4 15.5523 4.44771 16 5 16H27C27.5523 16 28 15.5523 28 15V11C28 10.4477 27.5523 10 27 10H5C4.44771 10 4 10.4477 4 11V15Z" stroke="#404040" stroke-width="1.5" stroke-linecap="round" stroke-linejoin="round"/>
<path d="M26 16V25C26 25.2652 25.8946 25.5196 25.7071 25.7071C25.5196 25.8946 25.2652 26 25 26H7C6.73478 26 6.48043 25.8946 6.29289 25.7071C6.10536 25.5196 6 25.2652 6 25V16" stroke="#404040" stroke-width="1.5" stroke-linecap="round" stroke-linejoin="round"/>
<path d="M16 10V26" stroke="#404040" stroke-width="1.5" stroke-linecap="round" stroke-linejoin="round"/>
<path d="M22.5343 6.46481C22.5341 5.66946 22.218 4.90675 21.6556 4.34435C21.0932 3.78195 20.3305 3.46589 19.5352 3.46567C18.7398 3.46544 17.9769 3.78106 17.4142 4.34314C16 5.75735 16 9.99999 16 9.99999C16 9.99999 20.2426 9.99999 21.6569 8.58578V8.58578C22.2189 8.02306 22.5346 7.26017 22.5343 6.46481Z" stroke="#404040" stroke-width="1.5" stroke-linecap="round" stroke-linejoin="round"/>
<path d="M9.46582 6.46481C9.46605 5.66946 9.7821 4.90675 10.3445 4.34435C10.9069 3.78195 11.6696 3.46589 12.465 3.46567C13.2603 3.46544 14.0232 3.78106 14.5859 4.34314C16.0001 5.75735 16.0001 9.99999 16.0001 9.99999C16.0001 9.99999 11.7575 9.99999 10.3433 8.58578V8.58578C9.78121 8.02306 9.46559 7.26017 9.46582 6.46481Z" stroke="#404040" stroke-width="1.5" stroke-linecap="round" stroke-linejoin="round"/>
</svg>
