<svg width="32" height="32" viewBox="0 0 32 32" fill="none" xmlns="http://www.w3.org/2000/svg">
<path d="M4 15C4 15.5523 4.44771 16 5 16H27C27.5523 16 28 15.5523 28 15V11C28 10.4477 27.5523 10 27 10H5C4.44771 10 4 10.4477 4 11V15Z" stroke="#404040" stroke-width="1.5" stroke-linecap="round" stroke-linejoin="round"/>
<path d="M26 16V25C26 25.2652 25.8946 25.5196 25.7071 25.7071C25.5196 25.8946 25.2652 26 25 26H7C6.73478 26 6.48043 25.8946 6.29289 25.7071C6.10536 25.5196 6 25.2652 6 25V16" stroke="#404040" stroke-width="1.5" stroke-linecap="round" stroke-linejoin="round"/>
<path d="M16 10V26" stroke="#404040" stroke-width="1.5" stroke-linecap="round" stroke-linejoin="round"/>
<path d="M22.5343 6.46484C22.5341 5.66949 22.218 4.90678 21.6556 4.34438C21.0932 3.78198 20.3305 3.46592 19.5352 3.4657C18.7398 3.46547 17.9769 3.78109 17.4142 4.34317C16 5.75738 16 10 16 10C16 10 20.2426 10 21.6569 8.58581C22.2189 8.02309 22.5346 7.2602 22.5343 6.46484Z" stroke="#404040" stroke-width="1.5" stroke-linecap="round" stroke-linejoin="round"/>
<path d="M9.4657 6.46484C9.46592 5.66949 9.78198 4.90678 10.3444 4.34438C10.9068 3.78198 11.6695 3.46592 12.4648 3.4657C13.2602 3.46547 14.0231 3.78109 14.5858 4.34317C16 5.75738 16 10 16 10C16 10 11.7574 10 10.3432 8.58581V8.58581C9.78109 8.02309 9.46547 7.2602 9.4657 6.46484Z" stroke="#404040" stroke-width="1.5" stroke-linecap="round" stroke-linejoin="round"/>
</svg>
