<svg width="24" height="24" viewBox="0 0 24 24" fill="none" xmlns="http://www.w3.org/2000/svg">
<path fill-rule="evenodd" clip-rule="evenodd" d="M21.7519 12.0005C21.7517 10.7199 21.4992 9.45186 21.0089 8.26883C20.5186 7.08579 19.8 6.01094 18.8942 5.10566C17.989 4.19988 16.9141 3.48131 15.7311 2.991C14.548 2.50068 13.28 2.24822 11.9994 2.24805C10.7188 2.24787 9.45067 2.49997 8.2675 2.98996C7.08434 3.47995 6.00929 4.19822 5.10375 5.10375C4.19822 6.00929 3.47995 7.08434 2.98996 8.2675C2.49997 9.45067 2.24787 10.7188 2.24805 11.9994C2.24822 13.28 2.50068 14.548 2.991 15.7311C3.48131 16.9141 4.19988 17.989 5.10566 18.8942C6.01094 19.8 7.08579 20.5186 8.26883 21.0089C9.45186 21.4992 10.7199 21.7517 12.0005 21.7519C13.2811 21.752 14.5492 21.4999 15.7324 21.0099C16.9156 20.5199 17.9906 19.8017 18.8961 18.8961C19.8017 17.9906 20.5199 16.9156 21.0099 15.7324C21.4999 14.5492 21.752 13.2811 21.7519 12.0005ZM15.0293 15.1032C14.4892 14.9576 13.9192 14.9661 13.3837 15.128C12.8483 15.2898 12.3689 15.5984 11.9999 16.0188C11.631 15.5984 11.1516 15.2898 10.6162 15.128C10.0807 14.9661 9.51068 14.9576 8.97063 15.1032L10.4029 11.9999H13.597L15.0293 15.1032ZM15.3106 16.9393C15.0293 16.658 14.6478 16.4999 14.2499 16.4999C13.8521 16.4999 13.4706 16.658 13.1893 16.9393C12.908 17.2206 12.7499 17.6021 12.7499 17.9999V20.2113C13.7959 20.117 14.8141 19.8236 15.7499 19.3471V17.9999C15.7499 17.6021 15.5919 17.2206 15.3106 16.9393ZM19.622 8.8428C20.2464 10.3503 20.4098 12.0091 20.0914 13.6095C19.7731 15.2098 18.9873 16.6798 17.8335 17.8336C17.6458 18.0213 17.4506 18.197 17.2499 18.3628V16.4999C17.25 16.3914 17.2264 16.2842 17.1809 16.1856L12.6809 6.43565C12.6804 6.43448 12.6796 6.43344 12.679 6.43232C12.6789 6.43211 12.6788 6.4319 12.6787 6.43168C12.665 6.40268 12.6495 6.37458 12.6323 6.34756C12.6297 6.34355 12.6271 6.33968 12.6244 6.33579C12.6233 6.33415 12.6221 6.33252 12.621 6.33087C12.6052 6.30729 12.588 6.28463 12.5696 6.263C12.5683 6.26149 12.5671 6.25994 12.5658 6.25839C12.5643 6.25652 12.5628 6.25464 12.5612 6.25284C12.5398 6.22865 12.5168 6.20589 12.4924 6.18468C12.49 6.18267 12.4876 6.18076 12.4853 6.17886C12.4834 6.17742 12.4816 6.17598 12.4799 6.17449C12.4591 6.15726 12.4375 6.14115 12.415 6.12626C12.4132 6.12505 12.4114 6.12384 12.4096 6.12263C12.4052 6.11969 12.4009 6.11677 12.3964 6.11398C12.37 6.09729 12.3425 6.08226 12.3142 6.06898L12.3127 6.06835C12.3119 6.068 12.3112 6.06769 12.3104 6.06738C12.3089 6.06683 12.3074 6.06631 12.306 6.06567C12.279 6.05372 12.2514 6.04337 12.2232 6.03466C12.2152 6.03218 12.2072 6.02997 12.1992 6.02775C12.1722 6.02021 12.1448 6.01419 12.1171 6.00973C12.1131 6.0091 12.1092 6.00813 12.1052 6.00756C12.0728 6.00305 12.0402 6.00069 12.0075 6.00049C12.0062 6.00048 12.005 6.00035 12.0038 6.00022C12.0025 6.00008 12.0012 5.99995 11.9999 5.99995C11.9978 5.99995 11.9958 6.00017 11.9937 6.00038C11.9918 6.00058 11.9899 6.00078 11.988 6.00081C11.9596 6.00125 11.9313 6.0033 11.9031 6.00695C11.9009 6.00725 11.8986 6.00748 11.8963 6.0077C11.8933 6.00801 11.8902 6.00831 11.8872 6.00877C11.8565 6.01353 11.8261 6.0202 11.7962 6.02874C11.7908 6.03027 11.7855 6.03201 11.7801 6.03374C11.7778 6.0345 11.7755 6.03525 11.7732 6.03599C11.7488 6.04371 11.7249 6.05267 11.7015 6.06282C11.699 6.06389 11.6966 6.06491 11.6941 6.06592C11.6903 6.06746 11.6866 6.06899 11.6829 6.0707C11.6548 6.08385 11.6275 6.09873 11.6011 6.11526C11.5981 6.11721 11.5951 6.11927 11.5921 6.12133C11.59 6.12272 11.588 6.12411 11.586 6.12547C11.5632 6.14051 11.5413 6.15679 11.5204 6.17424C11.5158 6.17803 11.5112 6.18162 11.5067 6.18552C11.4823 6.2067 11.4593 6.22944 11.4379 6.2536C11.4366 6.25507 11.4354 6.2566 11.4342 6.25813C11.4332 6.25944 11.4321 6.26075 11.431 6.26201C11.4125 6.28375 11.3953 6.30653 11.3794 6.33024C11.3749 6.3368 11.3705 6.3433 11.3663 6.35001C11.3487 6.3775 11.3329 6.40611 11.319 6.43565L9.24202 10.9356L9.24179 10.9362L6.81898 16.1856C6.77349 16.2842 6.74994 16.3914 6.74995 16.4999V18.3628C6.54931 18.197 6.3541 18.0213 6.16639 17.8336C5.01259 16.6798 4.22683 15.2098 3.90849 13.6095C3.59014 12.0091 3.75351 10.3503 4.37792 8.8428C5.00234 7.3353 6.05976 6.04681 7.41647 5.14028C8.77318 4.23375 10.3682 3.74989 11.9999 3.74989C13.6317 3.74989 15.2267 4.23375 16.5834 5.14028C17.9401 6.04681 18.9976 7.3353 19.622 8.8428Z" fill="#404040"/>
</svg>
