<svg width="32" height="32" viewBox="0 0 32 32" fill="none" xmlns="http://www.w3.org/2000/svg">
<path d="M12.2929 27.7071C12.4804 27.8946 12.7348 28 13 28H19C19.2652 28 19.5196 27.8946 19.7071 27.7071C19.8946 27.5196 20 27.2652 20 27V20H27C27.2652 20 27.5196 19.8946 27.7071 19.7071C27.8946 19.5196 28 19.2652 28 19V13C28 12.7348 27.8946 12.4804 27.7071 12.2929C27.5196 12.1054 27.2652 12 27 12H20V5C20 4.73478 19.8946 4.48043 19.7071 4.29289C19.5196 4.10536 19.2652 4 19 4H13C12.7348 4 12.4804 4.10536 12.2929 4.29289C12.1054 4.48043 12 4.73478 12 5V12H5C4.73478 12 4.48043 12.1054 4.29289 12.2929C4.10536 12.4804 4 12.7348 4 13V19C4 19.2652 4.10536 19.5196 4.29289 19.7071C4.48043 19.8946 4.73478 20 5 20H12V27C12 27.2652 12.1054 27.5196 12.2929 27.7071Z" stroke="#404040" stroke-width="1.5" stroke-linecap="round" stroke-linejoin="round"/>
</svg>
