<svg width="32" height="32" viewBox="0 0 32 32" fill="none" xmlns="http://www.w3.org/2000/svg">
<path d="M27.4903 23.0367L16.4903 29.2242C16.3406 29.3084 16.1717 29.3526 16 29.3526C15.8283 29.3526 15.6594 29.3084 15.5097 29.2242L4.50974 23.0367C4.35509 22.9497 4.22637 22.8232 4.13679 22.67C4.04721 22.5168 4 22.3426 4 22.1651V9.83484C4 9.6574 4.04721 9.48316 4.13679 9.32999C4.22637 9.17683 4.35509 9.05025 4.50974 8.96326L15.5097 2.77576C15.6594 2.69157 15.8283 2.64734 16 2.64734C16.1717 2.64734 16.3406 2.69157 16.4903 2.77576L27.4903 8.96326C27.6449 9.05025 27.7736 9.17683 27.8632 9.32999C27.9528 9.48316 28 9.6574 28 9.83484V22.1651C28 22.3426 27.9528 22.5168 27.8632 22.67C27.7736 22.8232 27.6449 22.9497 27.4903 23.0367Z" stroke="#404040" stroke-width="1.5" stroke-linecap="round" stroke-linejoin="round"/>
<path d="M22.1278 19.0639V12.5639L10 5.875" stroke="#404040" stroke-width="1.5" stroke-linecap="round" stroke-linejoin="round"/>
<path d="M27.8621 9.3284L16.1186 16L4.13843 9.32715" stroke="#404040" stroke-width="1.5" stroke-linecap="round" stroke-linejoin="round"/>
<path d="M16.1186 16L16.0012 29.3527" stroke="#404040" stroke-width="1.5" stroke-linecap="round" stroke-linejoin="round"/>
</svg>
