<svg width="32" height="32" viewBox="0 0 32 32" fill="none" xmlns="http://www.w3.org/2000/svg">
<path d="M16 22V29" stroke="#404040" stroke-width="1.5" stroke-linecap="round" stroke-linejoin="round"/>
<path d="M11 29H21" stroke="#404040" stroke-width="1.5" stroke-linecap="round" stroke-linejoin="round"/>
<path d="M6.88486 16.1189C7.6778 17.8719 8.95941 19.359 10.5761 20.4021C12.1928 21.4452 14.076 22 15.9999 22C17.9239 22 19.8071 21.4452 21.4238 20.4021C23.0405 19.359 24.3221 17.8718 25.115 16.1188C25.4108 15.4637 25.4612 14.724 25.2572 14.0347L21.9999 3H9.99992L6.74267 14.0348C6.53863 14.7241 6.5891 15.4637 6.88486 16.1189Z" stroke="#404040" stroke-width="1.5" stroke-linecap="round" stroke-linejoin="round"/>
<path d="M7.18555 12.5346C8.51036 11.8305 11.5918 10.7959 16 13C20.6944 15.3472 23.8843 14.0215 25.0502 13.3334" stroke="#404040" stroke-width="1.5" stroke-linecap="round" stroke-linejoin="round"/>
</svg>
