<svg width="32" height="32" viewBox="0 0 32 32" fill="none" xmlns="http://www.w3.org/2000/svg">
<path d="M27.8995 15.4939C27.8343 15.359 27.7397 15.2404 27.6226 15.147C27.5055 15.0535 27.3689 14.9875 27.2229 14.9538C27.077 14.9201 26.9253 14.9196 26.779 14.9523C26.1974 15.0835 25.5938 15.083 25.0124 14.9508C24.431 14.8186 23.8865 14.558 23.4188 14.1882C22.9511 13.8184 22.572 13.3487 22.3093 12.8135C22.0465 12.2783 21.9068 11.6911 21.9002 11.0948C21.8981 10.8316 21.7925 10.5798 21.6064 10.3936C21.4202 10.2075 21.1684 10.1019 20.9051 10.0997C20.3089 10.0932 19.7217 9.95347 19.1865 9.69072C18.6512 9.42796 18.1815 9.04885 17.8117 8.58113C17.4419 8.11342 17.1814 7.56893 17.0492 6.98752C16.917 6.40611 16.9165 5.8025 17.0477 5.22086C17.0803 5.07454 17.0798 4.92274 17.046 4.77667C17.0122 4.63059 16.9461 4.49397 16.8524 4.37687C16.7588 4.25977 16.6401 4.16518 16.505 4.10007C16.37 4.03497 16.222 4.00101 16.0721 4.00071C13.678 3.98619 11.3344 4.68813 9.34246 6.01628C7.35055 7.34442 5.80146 9.23803 4.89439 11.4536C3.98731 13.6692 3.76372 16.1055 4.25236 18.4492C4.74101 20.7929 5.91954 22.9368 7.63643 24.6054C12.3144 29.1548 19.8594 29.103 24.4776 24.4929C25.6046 23.3708 26.4965 22.0353 27.1012 20.5644C27.7059 19.0935 28.0112 17.5168 27.9993 15.9265V15.9265C27.9988 15.7766 27.9647 15.6288 27.8995 15.4939Z" stroke="#404040" stroke-width="1.5" stroke-linecap="round" stroke-linejoin="round"/>
<path d="M18 21.5C18 22.3284 18.6716 23 19.5 23C20.3284 23 21 22.3284 21 21.5C21 20.6716 20.3284 20 19.5 20C18.6716 20 18 20.6716 18 21.5Z" fill="#404040"/>
<path d="M10 20.5C10 21.3284 10.6716 22 11.5 22C12.3284 22 13 21.3284 13 20.5C13 19.6716 12.3284 19 11.5 19C10.6716 19 10 19.6716 10 20.5Z" fill="#404040"/>
<path d="M9 13.5C9 14.3284 9.67157 15 10.5 15C11.3284 15 12 14.3284 12 13.5C12 12.6716 11.3284 12 10.5 12C9.67157 12 9 12.6716 9 13.5Z" fill="#404040"/>
<path d="M15.5 15.5C15.5 16.3284 16.1716 17 17 17C17.8284 17 18.5 16.3284 18.5 15.5C18.5 14.6716 17.8284 14 17 14C16.1716 14 15.5 14.6716 15.5 15.5Z" fill="#404040"/>
</svg>
