<svg width="25" height="24" viewBox="0 0 25 24" fill="none" xmlns="http://www.w3.org/2000/svg">
<path fill-rule="evenodd" clip-rule="evenodd" d="M22.638 14.7462C22.6677 14.6362 22.672 14.5209 22.6505 14.409C22.629 14.2971 22.5823 14.1916 22.5139 14.1004L21.1191 12.2409C21.1212 12.0766 21.1195 11.9013 21.1171 11.7615L22.5133 9.89999C22.5816 9.80889 22.6283 9.70342 22.6498 9.59159C22.6713 9.47976 22.6671 9.3645 22.6374 9.25454C22.4033 8.38694 22.0582 7.55315 21.6108 6.77383C21.554 6.67504 21.4755 6.59048 21.3812 6.52656C21.2869 6.46265 21.1792 6.42106 21.0665 6.40496L18.7708 6.07711C18.6584 5.95819 18.5427 5.84245 18.4236 5.7299L18.0958 3.43522C18.0797 3.32248 18.0382 3.21489 17.9743 3.12061C17.9104 3.02633 17.8259 2.94784 17.7272 2.89108C16.9482 2.44314 16.1146 2.09756 15.2472 1.8629C15.1372 1.83317 15.0219 1.82889 14.91 1.85037C14.7981 1.87186 14.6926 1.91855 14.6014 1.9869L12.7463 3.37842C12.5828 3.37389 12.4188 3.37389 12.2553 3.37842L10.401 1.9876C10.3099 1.91928 10.2044 1.8726 10.0926 1.8511C9.98075 1.8296 9.86548 1.83384 9.75553 1.8635C8.88792 2.0976 8.05413 2.44264 7.27481 2.89008C7.17602 2.94684 7.09146 3.02535 7.02754 3.11967C6.96362 3.21398 6.92202 3.32162 6.9059 3.43441L6.5781 5.73005C6.45922 5.84243 6.34348 5.95818 6.23088 6.07731L3.93621 6.40502C3.82347 6.42112 3.71588 6.46268 3.6216 6.52655C3.52732 6.59042 3.44882 6.67493 3.39206 6.77366C2.94411 7.55269 2.59853 8.38626 2.36388 9.25373C2.33415 9.36371 2.32986 9.47902 2.35136 9.59091C2.37285 9.7028 2.41956 9.80831 2.48794 9.89945L3.88274 11.759C3.88064 11.9233 3.88233 12.0985 3.88476 12.2384L2.48858 14.0999C2.42024 14.191 2.37355 14.2965 2.35204 14.4083C2.33053 14.5201 2.33477 14.6354 2.36443 14.7453C2.59855 15.6129 2.94361 16.4467 3.39106 17.2261C3.44781 17.3248 3.52632 17.4094 3.62064 17.4733C3.71496 17.5372 3.8226 17.5788 3.93538 17.5949L6.23107 17.9228C6.34345 18.0417 6.45917 18.1574 6.57824 18.27L6.906 20.5647C6.9221 20.6774 6.96368 20.785 7.02755 20.8793C7.09143 20.9735 7.17595 21.052 7.27468 21.1088C8.05369 21.5567 8.88723 21.9023 9.75466 22.137C9.86465 22.1667 9.97996 22.171 10.0919 22.1495C10.2038 22.128 10.3093 22.0813 10.4004 22.013L12.2555 20.6215C12.419 20.6261 12.583 20.6261 12.7465 20.6215L14.6008 22.0123C14.6919 22.0806 14.7974 22.1273 14.9092 22.1488C15.0211 22.1703 15.1364 22.1661 15.2463 22.1364C16.1139 21.9023 16.9477 21.5572 17.727 21.1098C17.8258 21.053 17.9104 20.9745 17.9743 20.8802C18.0382 20.7859 18.0798 20.6783 18.0959 20.5655L18.4245 18.2643C18.5422 18.1496 18.6648 18.0245 18.7621 17.9239L21.0656 17.5949C21.1784 17.5788 21.286 17.5372 21.3802 17.4733C21.4745 17.4095 21.553 17.325 21.6098 17.2262C22.0577 16.4472 22.4033 15.6136 22.638 14.7462ZM16.6259 11.9999C16.6246 13.0935 16.1896 14.142 15.4163 14.9153C14.643 15.6887 13.5945 16.1237 12.5009 16.1249C11.685 16.1249 10.8875 15.883 10.2091 15.4297C9.53079 14.9764 9.00208 14.3322 8.68987 13.5785C8.37766 12.8247 8.29597 11.9953 8.45513 11.1952C8.6143 10.395 9.00717 9.65997 9.58406 9.08308C10.1609 8.50619 10.896 8.11332 11.6961 7.95416C12.4963 7.79499 13.3257 7.87668 14.0794 8.1889C14.8332 8.50111 15.4774 9.02982 15.9307 9.70817C16.3839 10.3865 16.6259 11.184 16.6259 11.9999Z" fill="#404040"/>
</svg>
