<svg width="25" height="24" viewBox="0 0 25 24" fill="none" xmlns="http://www.w3.org/2000/svg">
<path d="M8 12C8 14.4853 10.0147 16.5 12.5 16.5C14.9853 16.5 17 14.4853 17 12C17 9.51472 14.9853 7.5 12.5 7.5C10.0147 7.5 8 9.51472 8 12Z" stroke="#404040" stroke-linecap="round" stroke-linejoin="round"/>
<path d="M15.0505 2.58691L12.9806 4.13951C12.6604 4.12005 12.3393 4.12005 12.0191 4.13951L9.95001 2.58759C9.14467 2.80479 8.37075 3.12505 7.64743 3.54044L7.28166 6.10191C7.04148 6.31457 6.81443 6.54161 6.60177 6.7818L4.04132 7.1475C3.62545 7.87054 3.30466 8.64425 3.08691 9.44944L4.63951 11.5193C4.62005 11.8395 4.63957 12.4807 4.63957 12.4807L3.08759 14.5499C3.30479 15.3552 3.62505 16.1292 4.04044 16.8525L6.60191 17.2183C6.81457 17.4584 7.04162 17.6855 7.2818 17.8981L7.6475 20.4586C8.37054 20.8745 9.14425 21.1953 9.94944 21.413L12.0193 19.8604C12.3395 19.8799 12.6606 19.8799 12.9808 19.8604L15.0499 21.4123C15.8552 21.1951 16.6292 20.8749 17.3525 20.4595L17.7183 17.898C17.9584 17.6854 18.398 17.2182 18.398 17.2182L20.9586 16.8524C21.3745 16.1294 21.6953 15.3557 21.913 14.5505L20.3604 12.4806C20.3799 12.1604 20.3603 11.5192 20.3603 11.5192L21.9123 9.45001C21.6951 8.64467 21.3749 7.87075 20.9595 7.14743L18.398 6.78166C18.1854 6.54148 17.9583 6.31443 17.7181 6.10177L17.3524 3.54132C16.6294 3.12545 15.8557 2.80466 15.0505 2.58691Z" stroke="#404040" stroke-linecap="round" stroke-linejoin="round"/>
</svg>
